<?xml version="1.0" encoding="utf-8"?>
<!-- Generator: Adobe Illustrator 16.0.0, SVG Export Plug-In . SVG Version: 6.00 Build 0)  -->
<!DOCTYPE svg PUBLIC "-//W3C//DTD SVG 1.1//EN" "http://www.w3.org/Graphics/SVG/1.1/DTD/svg11.dtd">
<svg version="1.1" id="Layer_1" xmlns="http://www.w3.org/2000/svg" xmlns:xlink="http://www.w3.org/1999/xlink" x="0px" y="0px"
	 width="100px" height="100px" viewBox="0 0 100 100" enable-background="new 0 0 100 100" xml:space="preserve">
<g>
	<polygon fill="#FFFFFF" points="46.983,50.812 55.487,49.128 69.131,35.75 83.658,48.418 91.189,50.278 69.085,30.523 	"/>
	<path fill="#FFFFFF" d="M55.133,42.482l3.368-3.364L40.96,23.083L12.169,48.862c0,0,8.947-2.924,10.364-3.012l18.03-16.39
		L55.133,42.482z"/>
	<path fill="#FFFFFF" d="M25.013,71.186c7.177-0.884,14.686,0.922,19.312,2.302c12.407,3.708,27.641,2.394,27.641,2.394
		c-10.722,4.785-24.979,1.638-33.133,0.178c-18.781-3.367-31.449,2.304-31.449,2.304c3.81-3.722,13.91-6.822,13.91-6.822
		l1.948-24.894"/>
	<path fill="#FFFFFF" d="M84.454,68.617c0,0-10.275,12.227-38.624,3.368C45.83,71.985,71.537,75.914,84.454,68.617z"/>
	<path fill="#FFFFFF" d="M82.949,50.19l-1.327,18.782c0,0,1.947-1.241,2.832-1.419L82.949,50.19z"/>
	<g>
		<rect x="34.493" y="54.087" fill="#FFFFFF" width="4.252" height="4.252"/>
		<rect x="40.065" y="54.087" fill="#FFFFFF" width="4.251" height="4.252"/>
		<rect x="34.493" y="48.424" fill="#FFFFFF" width="4.252" height="4.252"/>
		<rect x="40.065" y="48.424" fill="#FFFFFF" width="4.251" height="4.252"/>
	</g>
	<g>
		<rect x="63.623" y="56.214" fill="#BE1E2D" width="4.252" height="4.252"/>
		<rect x="69.196" y="56.214" fill="#BE1E2D" width="4.251" height="4.252"/>
		<rect x="63.623" y="50.55" fill="#BE1E2D" width="4.252" height="4.252"/>
		<rect x="69.196" y="50.55" fill="#BE1E2D" width="4.251" height="4.252"/>
	</g>
</g>
</svg>
