<svg width="541.3475219726562px" height="122.021240234375px" xmlns="http://www.w3.org/2000/svg" viewBox="-20.67376098632809 13.9893798828125 541.3475219726562 122.021240234375" style="background: rgb(255, 255, 255);" preserveAspectRatio="xMidYMid"><defs><filter id="editing-hover" x="-100%" y="-100%" width="300%" height="300%"><feFlood flood-color="#ffd5af" result="flood"></feFlood><feComposite operator="in" in2="SourceAlpha" in="flood" result="shadow"></feComposite><feOffset dx="0.8" dy="-2.6" in="SourceGraphic" result="offset-1"></feOffset><feOffset dx="-0.8" dy="2.6" in="shadow" result="offset-2"></feOffset><feMerge><feMergeNode in="offset-2"></feMergeNode><feMergeNode in="offset-1"></feMergeNode></feMerge></filter></defs><g filter="url(#editing-hover)"><g transform="translate(59.3150072991848, 98.67218780517578)"><path d="M24.96-4.80L24.96-4.80L24.96-4.80Q24.96-9.28 26.75-18.24L26.75-18.24L17.28-18.24L13.76 0L0.38 0L8.51-42.24L22.02-42.24L18.30-23.36L27.78-23.36L31.30-42.24L44.80-42.24L44.80-42.24Q43.90-37.50 42.75-32.19L42.75-32.19L40.58-21.76L40.58-21.76Q38.14-9.60 38.14-4.29L38.14-4.29L38.14-4.29Q38.14-2.11 38.85-0.90L38.85-0.90L38.85-0.90Q35.65 1.28 31.90 1.28L31.90 1.28L31.90 1.28Q28.16 1.28 26.56-0.51L26.56-0.51L26.56-0.51Q24.96-2.30 24.96-4.80ZM59.46 0L45.76 0L53.57-42.05L53.57-42.05Q59.90-42.75 69.15-42.75L69.15-42.75L69.15-42.75Q78.40-42.75 82.69-40.06L82.69-40.06L82.69-40.06Q86.98-37.38 86.98-31.97L86.98-31.97L86.98-31.97Q86.98-26.56 84.19-23.17L84.19-23.17L84.19-23.17Q81.41-19.78 76.61-18.69L76.61-18.69L76.61-18.69Q77.70-13.38 80.19-9.09L80.19-9.09L80.19-9.09Q82.50-5.06 85.18-3.78L85.18-3.78L85.18-3.78Q84.22-1.09 82.27 0.10L82.27 0.10L82.27 0.10Q80.32 1.28 77.54 1.28L77.54 1.28L77.54 1.28Q74.75 1.28 72.58-0.35L72.58-0.35L72.58-0.35Q70.40-1.98 68.67-4.99L68.67-4.99L68.67-4.99Q65.02-11.52 64.64-21.82L64.64-21.82L65.09-21.82L65.09-21.82Q69.82-21.95 72.19-24.42L72.19-24.42L72.19-24.42Q74.56-26.88 74.56-32.06L74.56-32.06L74.56-32.06Q74.56-38.53 69.12-38.78L69.12-38.78L67.71-38.78L67.71-38.78Q67.14-38.78 66.82-38.72L66.82-38.72L59.46 0ZM131.46-26.56L131.46-26.56L131.46-26.56Q131.46 0.70 101.89 0.70L101.89 0.70L101.89 0.70Q97.15 0.70 89.34-0.45L89.34-0.45L96.51-38.27L96.51-38.27Q97.02-40.83 97.34-42.30L97.34-42.30L97.34-42.30Q107.07-43.01 111.39-43.01L111.39-43.01L111.39-43.01Q115.71-43.01 119.68-42.11L119.68-42.11L119.68-42.11Q123.65-41.22 126.27-39.23L126.27-39.23L126.27-39.23Q131.46-35.33 131.46-26.56ZM118.27-28.93L118.27-28.93L118.27-28.93Q118.27-38.46 111.42-38.46L111.42-38.46L110.78-38.46L110.78-38.46Q110.46-38.46 110.14-38.40L110.14-38.40L103.55-4.03L103.55-4.03Q103.81-3.90 104.06-3.90L104.06-3.90L104.58-3.90L104.58-3.90Q106.94-3.90 109.41-5.38L109.41-5.38L109.41-5.38Q111.87-6.85 113.79-9.86L113.79-9.86L113.79-9.86Q118.27-16.83 118.27-28.93ZM171.78-4.80L171.78-4.80L171.78-4.80Q171.78-9.28 173.57-18.24L173.57-18.24L164.10-18.24L160.58 0L147.20 0L155.33-42.24L168.83-42.24L165.12-23.36L174.59-23.36L178.11-42.24L191.62-42.24L191.62-42.24Q190.72-37.50 189.57-32.19L189.57-32.19L187.39-21.76L187.39-21.76Q184.96-9.60 184.96-4.29L184.96-4.29L184.96-4.29Q184.96-2.11 185.66-0.90L185.66-0.90L185.66-0.90Q182.46 1.28 178.72 1.28L178.72 1.28L178.72 1.28Q174.98 1.28 173.38-0.51L173.38-0.51L173.38-0.51Q171.78-2.30 171.78-4.80ZM219.07-10.82L219.07-10.82L219.07-10.82Q220.67-9.73 220.67-7.33L220.67-7.33L220.67-7.33Q220.67-4.93 219.46-3.39L219.46-3.39L219.46-3.39Q218.24-1.86 216.26-0.83L216.26-0.83L216.26-0.83Q212.16 1.28 207.74 1.28L207.74 1.28L207.74 1.28Q203.33 1.28 200.74 0.32L200.74 0.32L200.74 0.32Q198.14-0.64 196.42-2.43L196.42-2.43L196.42-2.43Q193.02-5.82 193.02-12.03L193.02-12.03L193.02-12.03Q193.02-21.70 198.27-27.58L198.27-27.58L198.27-27.58Q203.90-33.92 213.70-33.92L213.70-33.92L213.70-33.92Q219.78-33.92 222.78-31.36L222.78-31.36L222.78-31.36Q225.02-29.44 225.02-26.30L225.02-26.30L225.02-26.30Q225.02-15.04 205.57-15.04L205.57-15.04L205.57-15.04Q205.31-13.38 205.31-11.97L205.31-11.97L205.31-11.97Q205.31-9.02 206.62-7.90L206.62-7.90L206.62-7.90Q207.94-6.78 210.37-6.78L210.37-6.78L210.37-6.78Q212.80-6.78 215.39-7.90L215.39-7.90L215.39-7.90Q217.98-9.02 219.07-10.82ZM206.02-17.79L206.02-17.79L206.02-17.79Q210.56-17.79 213.18-20.61L213.18-20.61L213.18-20.61Q215.81-23.30 215.81-27.58L215.81-27.58L215.81-27.58Q215.81-29.06 215.26-29.86L215.26-29.86L215.26-29.86Q214.72-30.66 213.63-30.66L213.63-30.66L213.63-30.66Q212.54-30.66 211.62-30.24L211.62-30.24L211.62-30.24Q210.69-29.82 209.73-28.42L209.73-28.42L209.73-28.42Q207.36-25.22 206.02-17.79ZM254.27 1.28L254.27 1.28L254.27 1.28Q246.53 1.28 246.53-4.74L246.53-4.74L246.53-4.74Q246.59-6.40 247.10-9.22L247.10-9.22L248.26-15.10L248.26-15.10Q249.98-23.42 249.98-25.28L249.98-25.28L249.98-25.28Q249.98-28.99 247.81-28.99L247.81-28.99L247.81-28.99Q244.16-28.99 242.24-19.46L242.24-19.46L238.46 0L225.60 1.28L232.26-32.70L242.75-33.92L241.73-27.65L241.73-27.65Q244.74-33.92 253.95-33.92L253.95-33.92L253.95-33.92Q258.43-33.92 260.32-32.03L260.32-32.03L260.32-32.03Q262.21-30.14 262.21-25.92L262.21-25.92L262.21-25.92Q262.21-21.95 260.16-12.67L260.16-12.67L260.16-12.67Q259.20-8.51 259.20-6.94L259.20-6.94L259.20-6.94Q259.20-5.38 260.06-4.48L260.06-4.48L260.06-4.48Q260.93-3.58 262.21-3.46L262.21-3.46L262.21-3.46Q261.57-1.28 259.36 0L259.36 0L259.36 0Q257.15 1.28 254.27 1.28ZM283.84-30.34L283.84-30.34L283.84-30.34Q287.30-33.92 294.59-33.92L294.59-33.92L294.59-33.92Q298.62-33.92 300.83-31.78L300.83-31.78L300.83-31.78Q303.04-29.63 303.04-25.70L303.04-25.70L303.04-25.70Q303.04-21.76 300.83-18.98L300.83-18.98L300.83-18.98Q298.62-16.19 294.53-15.04L294.53-15.04L294.53-15.04Q294.85-13.76 295.30-12.42L295.30-12.42L296.19-9.86L296.19-9.86Q297.41-6.59 298.37-5.44L298.37-5.44L298.37-5.44Q299.33-4.29 300.61-3.90L300.61-3.90L300.61-3.90Q299.90-1.28 297.34 0.13L297.34 0.13L297.34 0.13Q295.30 1.28 292.48 1.28L292.48 1.28L292.48 1.28Q284.22 1.28 283.14-11.46L283.14-11.46L283.14-11.46Q282.94-13.25 282.94-15.04L282.94-15.04L282.94-15.04Q286.14-15.94 288.38-18.94L288.38-18.94L288.38-18.94Q290.62-21.95 290.62-25.47L290.62-25.47L290.62-25.47Q290.62-28.99 288.13-28.99L288.13-28.99L288.13-28.99Q286.34-28.99 284.93-27.01L284.93-27.01L284.93-27.01Q283.52-25.02 282.88-21.63L282.88-21.63L278.66 0L265.73 1.28L274.69-44.80L287.55-46.08L286.08-38.46L286.08-38.46Q285.12-33.09 283.84-30.34ZM319.94 1.28L319.94 1.28L319.94 1.28Q305.86 1.28 305.86-11.97L305.86-11.97L305.86-11.97Q305.86-21.38 311.04-27.46L311.04-27.46L311.04-27.46Q316.54-33.92 326.08-33.92L326.08-33.92L326.08-33.92Q332.99-33.92 336.51-30.72L336.51-30.72L336.51-30.72Q340.03-27.52 340.03-20.80L340.03-20.80L340.03-20.80Q340.03-10.56 334.53-4.61L334.53-4.61L334.53-4.61Q329.15 1.28 319.94 1.28ZM321.60-26.56L321.60-26.56L321.60-26.56Q320.83-24.83 320.22-22.24L320.22-22.24L320.22-22.24Q319.62-19.65 318.85-15.55L318.85-15.55L318.85-15.55Q318.08-11.46 318.08-6.40L318.08-6.40L318.08-6.40Q318.08-4.74 318.62-3.65L318.62-3.65L318.62-3.65Q319.17-2.56 320.64-2.56L320.64-2.56L320.64-2.56Q322.11-2.56 323.04-3.26L323.04-3.26L323.04-3.26Q323.97-3.97 324.67-5.63L324.67-5.63L324.67-5.63Q325.95-8.58 326.98-14.05L326.98-14.05L326.98-14.05Q328-19.52 328.10-21.89L328.10-21.89L328.10-21.89Q328.19-24.26 328.19-26.02L328.19-26.02L328.19-26.02Q328.19-27.78 327.68-28.93L327.68-28.93L327.68-28.93Q327.17-30.08 325.73-30.08L325.73-30.08L325.73-30.08Q324.29-30.08 323.33-29.18L323.33-29.18L323.33-29.18Q322.37-28.29 321.60-26.56ZM364.35-2.69L364.35-2.69L364.35-2.69Q361.28 1.28 353.66 1.28L353.66 1.28L353.66 1.28Q349.70 1.28 346.82-1.12L346.82-1.12L346.82-1.12Q343.94-3.52 343.94-6.98L343.94-6.98L343.94-6.98Q343.94-8.90 344.13-9.86L344.13-9.86L348.42-32.64L361.41-33.92L356.74-9.22L356.74-9.22Q356.48-7.81 356.48-6.98L356.48-6.98L356.48-6.98Q356.48-3.26 358.72-3.26L358.72-3.26L358.72-3.26Q361.22-3.26 363.01-6.66L363.01-6.66L363.01-6.66Q363.58-7.74 363.84-9.15L363.84-9.15L368.38-32.64L380.99-33.92L376.26-8.96L376.26-8.96Q376.06-8 376.06-6.98L376.06-6.98L376.06-6.98Q376.06-5.95 376.64-4.83L376.64-4.83L376.64-4.83Q377.22-3.71 379.07-3.46L379.07-3.46L379.07-3.46Q378.69-1.92 377.34-0.90L377.34-0.90L377.34-0.90Q374.53 1.28 371.49 1.28L371.49 1.28L371.49 1.28Q368.45 1.28 366.66 0.19L366.66 0.19L366.66 0.19Q364.86-0.90 364.35-2.69Z" fill="#052b4a"></path></g></g><style>text {
  font-size: 64px;
  font-family: Arial Black;
  dominant-baseline: central;
  text-anchor: middle;
}</style></svg>